<svg width="42" height="40" viewBox="0 0 42 40" fill="none" xmlns="http://www.w3.org/2000/svg">
<path d="M40 8V6L38 4H34V2H36H38.15C38.6167 2 39.05 2.2 39.45 2.6L41.45 4.6C41.8167 4.96667 42 5.43333 42 6V34C42 34.5667 41.8167 35.05 41.45 35.45L39.45 37.45C39.05 37.8167 38.6167 38 38.15 38H36H34V36H38L40 34V32V8ZM6 38H4C3.43333 38 2.96667 37.8167 2.6 37.45L0.599998 35.45C0.199998 35.05 0 34.5667 0 34V6C0 5.43333 0.199998 4.96667 0.599998 4.6L2.6 2.6C2.96667 2.2 3.43333 2 4 2H6H8V4H4L2 6V8V32V34L4 36H8V38H6Z" fill="#2E2B22"/>
<path d="M34 4H38L40 6V8H34V4ZM40 32V34L38 36H34V32H40ZM8 36H4L2 34V32H8V36ZM2 8V6L4 4H8V8H2Z" fill="#464133"/>
<path d="M2 8H8V32H2V8ZM40 8V32H34V8H40Z" fill="#403C2F"/>
<path d="M34 38H36C36 38.5667 35.8167 39.05 35.45 39.45C35.05 39.8167 34.5667 40 34 40H8C7.43333 40 6.96667 39.8167 6.6 39.45C6.2 39.05 6 38.5833 6 38.05V38H8H12H16H26H30H34ZM36 2H34H30H26H16H12H8H6C6 1.43333 6.2 0.966665 6.6 0.599998C6.96667 0.199998 7.43333 0 8 0H34C34.5667 0 35.05 0.199998 35.45 0.599998C35.8167 0.966665 36 1.41667 36 1.95V2Z" fill="#AA9D7C"/>
<path d="M34 36V38H30V2H34V4V8V32V36ZM8 38V36V32V8V4V2H12V38H8ZM26 23C26 24.3667 25.5 25.5333 24.5 26.5C23.5333 27.5 22.3667 28 21 28C19.6333 28 18.45 27.5 17.45 26.5C16.4833 25.5333 16 24.3667 16 23C16 21.6333 16.4833 20.45 17.45 19.45C18.45 18.4833 19.6333 18 21 18C22.3667 18 23.5333 18.4833 24.5 19.45C25.5 20.45 26 21.6333 26 23Z" fill="#E2D0A6"/>
<path d="M26 23C26 21.6333 25.5 20.45 24.5 19.45C23.5333 18.4833 22.3667 18 21 18C19.6333 18 18.45 18.4833 17.45 19.45C16.4833 20.45 16 21.6333 16 23C16 24.3667 16.4833 25.5333 17.45 26.5C18.45 27.5 19.6333 28 21 28C22.3667 28 23.5333 27.5 24.5 26.5C25.5 25.5333 26 24.3667 26 23ZM12 2H16V12H26V2H30V38H26V34H16V38H12V2Z" fill="#F5E1B4"/>
<path d="M16 2H26V12H16V2ZM16 38V34H26V38H16Z" fill="#CDBD96"/>
</svg>
