<svg width="210" height="210" viewBox="0 0 210 210" fill="none" xmlns="http://www.w3.org/2000/svg">
<path d="M210 88.8149V100.365L195 109.015V149.465L105 201.415L50 169.665V158.115L40 152.315L30 158.115L15 149.465V80.1649L0 83.0649V71.5149L90 19.5649L150 8.01489L210 88.8149Z" fill="#66E1FF"/>
<path d="M105 132.135L120 152.34L195 109.04V149.455L105 201.415V132.135Z" fill="#4292A6"/>
<path d="M60 71.5098L0 83.0598V71.5098L60 59.9648L120 140.795V152.34L60 71.5098Z" fill="#FF5757"/>
<path d="M150 19.55L90 31.095V19.55L150 8L210 88.83V100.38L150 19.55Z" fill="#4292A6"/>
<path d="M0 71.51L90 19.55L150 8L60 59.965L0 71.51Z" fill="#E64E4E"/>
<path d="M120 140.795L210 88.83L150 8L60 59.965L120 140.795Z" fill="#CC4545"/>
<path d="M120 140.795L210 88.8298V100.38L120 152.34V140.795Z" fill="#B33D3D"/>
<path d="M65 149.455L90 163.885V135.02L65 120.585V149.455Z" fill="#4292A6"/>
<path d="M30 158.115L40 152.34V117.7L30 111.925V158.115Z" fill="#4292A6"/>
<path d="M75 143.68L90 152.34V135.02L75 126.36V143.68Z" fill="#4AD8FF"/>
<path d="M65 149.455L90 163.885V152.34L75 143.68L65 149.455Z" fill="#52B1CC"/>
<path d="M40 152.34L50 158.115V123.47L40 117.7V152.34Z" fill="#FF5757"/>
</svg>
