<svg width="136" height="136" viewBox="0 0 136 136" fill="none" xmlns="http://www.w3.org/2000/svg">
<path d="M68 133C103.899 133 133 103.899 133 68C133 32.1015 103.899 3 68 3C32.1015 3 3 32.1015 3 68C3 103.899 32.1015 133 68 133Z" stroke="white" stroke-width="6"/>
<path d="M84.5 101C102.449 101 117 86.4493 117 68.5C117 50.5507 102.449 36 84.5 36C66.5507 36 52 50.5507 52 68.5C52 86.4493 66.5507 101 84.5 101Z" stroke="white" stroke-width="6"/>
<path d="M52.5 101C70.4493 101 85 86.4493 85 68.5C85 50.5507 70.4493 36 52.5 36C34.5507 36 20 50.5507 20 68.5C20 86.4493 34.5507 101 52.5 101Z" stroke="white" stroke-width="6"/>
</svg>
