<svg width="136" height="136" viewBox="0 0 136 136" fill="none" xmlns="http://www.w3.org/2000/svg">
<path d="M68 133C103.899 133 133 103.899 133 68C133 32.1015 103.899 3 68 3C32.1015 3 3 32.1015 3 68C3 103.899 32.1015 133 68 133Z" stroke="black" stroke-width="6"/>
<path fill-rule="evenodd" clip-rule="evenodd" d="M84.5 39C68.2076 39 55 52.2076 55 68.5C55 84.7924 68.2076 98 84.5 98C100.792 98 114 84.7924 114 68.5C114 52.2076 100.792 39 84.5 39ZM49 68.5C49 48.8939 64.8939 33 84.5 33C104.106 33 120 48.8939 120 68.5C120 88.1061 104.106 104 84.5 104C64.8939 104 49 88.1061 49 68.5ZM52.5 39C36.2076 39 23 52.2076 23 68.5C23 84.7924 36.2076 98 52.5 98C68.7924 98 82 84.7924 82 68.5C82 52.2076 68.7924 39 52.5 39ZM17 68.5C17 48.8939 32.8939 33 52.5 33C72.1061 33 88 48.8939 88 68.5C88 88.1061 72.1061 104 52.5 104C32.8939 104 17 88.1061 17 68.5Z" fill="black"/>
</svg>
