<svg width="215" height="200" viewBox="0 0 215 200" fill="none" xmlns="http://www.w3.org/2000/svg">
<path d="M213 87.6331V99.1593L198 107.791V148.158L108 200L53 168.316V156.79L43 151.002L33 156.79L18 148.158V79.001L3 81.895V70.369L93 18.5265L153 7.00043L213 87.6331Z" fill="#66E1FF"/>
<path d="M108 130.863L123 151.027L198 107.816V148.148L108 200V130.863Z" fill="#4292A6"/>
<path d="M63 70.3638L3 81.8899V70.3638L63 58.8427L123 139.506V151.027L63 70.3638Z" fill="#FF5757"/>
<path d="M153 18.5116L93 30.0327V18.5116L153 6.98553L213 87.6482V99.1742L153 18.5116Z" fill="#4292A6"/>
<path d="M3 70.364L93 18.5116L153 6.98553L63 58.8429L3 70.364Z" fill="#E64E4E"/>
<path d="M123 139.506L213 87.6482L153 6.98553L63 58.8429L123 139.506Z" fill="#CC4545"/>
<path d="M123 139.506L213 87.6479V99.1742L123 151.027V139.506Z" fill="#B33D3D"/>
<path d="M68 148.148L93 162.548V133.743L68 119.337V148.148Z" fill="#4292A6"/>
<path d="M33 156.79L43 151.027V116.458L33 110.695V156.79Z" fill="#4292A6"/>
<path d="M78 142.385L93 151.027V133.742L78 125.1V142.385Z" fill="#4AD8FF"/>
<path d="M68 148.148L93 162.548V151.027L78 142.385L68 148.148Z" fill="#52B1CC"/>
<path d="M43 151.027L53 156.79V122.216L43 116.458V151.027Z" fill="#FF5757"/>
<path d="M166 0.997925H78V52.9412H166V0.997925Z" fill="white"/>
<path d="M166 0.997925H156V69.855L166 79.8343V0.997925Z" fill="#BEBBBB"/>
<path d="M118.054 7.0735L135.374 15.2311C136.364 15.6971 136.787 16.8755 136.32 17.863L136.32 17.863C135.853 18.8505 134.673 19.2732 133.683 18.8071L116.363 10.6495C115.373 10.1835 114.95 9.00513 115.417 8.01763C115.884 7.03013 117.065 6.60743 118.054 7.0735Z" fill="black"/>
<path d="M100.238 18.8155L117.558 10.6579C118.548 10.1918 118.971 9.0135 118.504 8.02601L118.504 8.026C118.037 7.0385 116.857 6.6158 115.867 7.08187L98.5471 15.2394C97.5575 15.7055 97.1339 16.8838 97.601 17.8713C98.068 18.8588 99.2488 19.2815 100.238 18.8155Z" fill="black"/>
<path d="M102.084 30.9036C102.084 22.7216 108.73 16.0888 116.929 16.0888C125.128 16.0888 131.775 22.7216 131.775 30.9036C131.775 39.0856 125.128 45.7184 116.929 45.7184C108.73 45.7184 102.084 39.0856 102.084 30.9036Z" stroke="black" stroke-width="5"/>
</svg>
