<svg width="215" height="200" viewBox="0 0 215 200" fill="none" xmlns="http://www.w3.org/2000/svg">
<path d="M213 82.8149V94.365L198 103.015V143.465L108 195.415L53 163.665V152.115L43 146.315L33 152.115L18 143.465V74.1649L3 77.0649V65.5149L93 13.5649L153 2.01489L213 82.8149Z" fill="#66E1FF"/>
<path d="M108 126.135L123 146.34L198 103.04V143.455L108 195.415V126.135Z" fill="#4292A6"/>
<path d="M63 65.5098L3 77.0598V65.5098L63 53.9648L123 134.795V146.34L63 65.5098Z" fill="#FF5757"/>
<path d="M153 13.55L93 25.095V13.55L153 2L213 82.83V94.38L153 13.55Z" fill="#4292A6"/>
<path d="M3 65.51L93 13.55L153 2L63 53.965L3 65.51Z" fill="#E64E4E"/>
<path d="M123 134.795L213 82.83L153 2L63 53.965L123 134.795Z" fill="#CC4545"/>
<path d="M123 134.795L213 82.8298V94.38L123 146.34V134.795Z" fill="#B33D3D"/>
<path d="M68 143.455L93 157.885V129.02L68 114.585V143.455Z" fill="#4292A6"/>
<path d="M33 152.115L43 146.34V111.7L33 105.925V152.115Z" fill="#4292A6"/>
<path d="M78 137.68L93 146.34V129.02L78 120.36V137.68Z" fill="#4AD8FF"/>
<path d="M68 143.455L93 157.885V146.34L78 137.68L68 143.455Z" fill="#52B1CC"/>
<path d="M43 146.34L53 152.115V117.47L43 111.7V146.34Z" fill="#FF5757"/>
<path d="M89 121H1V173.051H89V121Z" fill="white"/>
<path d="M89 121H79V200H89V121Z" fill="#BEBBBB"/>
<path d="M41.0543 127.088L58.3743 135.263C59.3638 135.73 59.7874 136.91 59.3204 137.9L59.3204 137.9C58.8533 138.89 57.6726 139.313 56.683 138.846L39.363 130.672C38.3734 130.205 37.9499 129.024 38.4169 128.034C38.8839 127.045 40.0647 126.621 41.0543 127.088Z" fill="black"/>
<path d="M23.2383 138.855L40.5584 130.68C41.5479 130.213 41.9715 129.032 41.5045 128.043L41.5045 128.043C41.0374 127.053 39.8566 126.63 38.8671 127.097L21.5471 135.271C20.5575 135.738 20.1339 136.919 20.601 137.908C21.068 138.898 22.2488 139.322 23.2383 138.855Z" fill="black"/>
<path d="M25.0838 150.968C25.0838 142.769 31.7304 136.122 39.9294 136.122C48.1283 136.122 54.7749 142.769 54.7749 150.968C54.7749 159.167 48.1283 165.813 39.9294 165.813C31.7304 165.813 25.0838 159.167 25.0838 150.968Z" stroke="black" stroke-width="5"/>
</svg>
