<svg width="215" height="259" viewBox="0 0 215 259" fill="none" xmlns="http://www.w3.org/2000/svg">
<path d="M213 146.633V158.159L198 166.791V207.158L108 259L53 227.316V215.79L43 210.002L33 215.79L18 207.158V138.001L3 140.895V129.369L93 77.5265L153 66.0004L213 146.633Z" fill="#66E1FF"/>
<path d="M108 189.863L123 210.027L198 166.816V207.148L108 259V189.863Z" fill="#4292A6"/>
<path d="M63 129.364L3 140.89V129.364L63 117.843L123 198.505V210.027L63 129.364Z" fill="#FF5757"/>
<path d="M153 77.5116L93 89.0326V77.5116L153 65.9855L213 146.648V158.174L153 77.5116Z" fill="#4292A6"/>
<path d="M3 129.364L93 77.5116L153 65.9855L63 117.843L3 129.364Z" fill="#E64E4E"/>
<path d="M123 198.505L213 146.648L153 65.9855L63 117.843L123 198.505Z" fill="#CC4545"/>
<path d="M123 198.505L213 146.648V158.174L123 210.027V198.505Z" fill="#B33D3D"/>
<path d="M68 207.148L93 221.548V192.742L68 178.337V207.148Z" fill="#4292A6"/>
<path d="M33 215.79L43 210.027V175.458L33 169.695V215.79Z" fill="#4292A6"/>
<path d="M78 201.384L93 210.027V192.742L78 184.1V201.384Z" fill="#4AD8FF"/>
<path d="M68 207.148L93 221.548V210.027L78 201.385L68 207.148Z" fill="#52B1CC"/>
<path d="M43 210.027L53 215.79V181.216L43 175.458V210.027Z" fill="#FF5757"/>
<path d="M162 0H49V66.6999H162V0Z" fill="white"/>
<path d="M162 0H149.159V88.4188L162 101.233V0Z" fill="#BEBBBB"/>
<path d="M100.433 7.8016L122.674 18.2767C123.945 18.8751 124.488 20.3882 123.889 21.6563L123.889 21.6563C123.289 22.9243 121.773 23.4671 120.502 22.8686L98.2616 12.3936C96.991 11.7951 96.447 10.282 97.0468 9.01397L97.0468 9.01395C97.6465 7.74592 99.1627 7.20313 100.433 7.8016Z" fill="black"/>
<path d="M77.5559 22.8794L99.7964 12.4043C101.067 11.8058 101.611 10.2927 101.011 9.0247L101.011 9.02469C100.412 7.75666 98.8953 7.21387 97.6247 7.81234L75.3842 18.2874C74.1135 18.8859 73.5696 20.399 74.1693 21.667L74.1693 21.667C74.769 22.935 76.2853 23.4778 77.5559 22.8794Z" fill="black"/>
<path d="M79.9257 38.4016C79.9257 27.8952 88.4605 19.3781 98.9887 19.3781C109.517 19.3781 118.052 27.8952 118.052 38.4016C118.052 48.908 109.517 57.4251 98.9887 57.4251C88.4605 57.4251 79.9257 48.908 79.9257 38.4016Z" stroke="black" stroke-width="5"/>
</svg>
