<svg width="215" height="268" viewBox="0 0 215 268" fill="none" xmlns="http://www.w3.org/2000/svg">
<path d="M213 155.633V167.159L198 175.791V216.158L108 268L53 236.316V224.79L43 219.002L33 224.79L18 216.158V147.001L3 149.895V138.369L93 86.5265L153 75.0004L213 155.633Z" fill="#66E1FF"/>
<path d="M108 198.863L123 219.027L198 175.816V216.148L108 268V198.863Z" fill="#4292A6"/>
<path d="M63 138.364L3 149.89V138.364L63 126.843L123 207.505V219.027L63 138.364Z" fill="#FF5757"/>
<path d="M153 86.5116L93 98.0326V86.5116L153 74.9855L213 155.648V167.174L153 86.5116Z" fill="#4292A6"/>
<path d="M3 138.364L93 86.5116L153 74.9855L63 126.843L3 138.364Z" fill="#E64E4E"/>
<path d="M123 207.505L213 155.648L153 74.9855L63 126.843L123 207.505Z" fill="#CC4545"/>
<path d="M123 207.505L213 155.648V167.174L123 219.027V207.505Z" fill="#B33D3D"/>
<path d="M68 216.148L93 230.548V201.742L68 187.337V216.148Z" fill="#4292A6"/>
<path d="M33 224.79L43 219.027V184.458L33 178.695V224.79Z" fill="#4292A6"/>
<path d="M78 210.384L93 219.027V201.742L78 193.1V210.384Z" fill="#4AD8FF"/>
<path d="M68 216.148L93 230.548V219.027L78 210.385L68 216.148Z" fill="#52B1CC"/>
<path d="M43 219.027L53 224.79V190.216L43 184.458V219.027Z" fill="#FF5757"/>
<path d="M115 0H2V66.6999H115V0Z" fill="white"/>
<path d="M102.159 0H115V88.4188L102.159 101.233V0Z" fill="#B86206"/>
<path d="M53.4334 7.8016L75.6739 18.2767C76.9445 18.8751 77.4884 20.3882 76.8887 21.6563L76.8887 21.6563C76.289 22.9243 74.7728 23.4671 73.5021 22.8686L51.2616 12.3936C49.991 11.7951 49.447 10.282 50.0468 9.01397L50.0468 9.01395C50.6465 7.74592 52.1627 7.20313 53.4334 7.8016Z" fill="black"/>
<path d="M30.5559 22.8794L52.7964 12.4043C54.0671 11.8058 54.611 10.2927 54.0113 9.0247L54.0113 9.02469C53.4116 7.75666 51.8953 7.21387 50.6247 7.81234L28.3842 18.2874C27.1135 18.8859 26.5696 20.399 27.1693 21.667L27.1693 21.667C27.769 22.935 29.2853 23.4778 30.5559 22.8794Z" fill="black"/>
<path d="M32.9257 38.4016C32.9257 27.8952 41.4605 19.3781 51.9887 19.3781C62.517 19.3781 71.0518 27.8952 71.0518 38.4016C71.0518 48.908 62.517 57.4251 51.9887 57.4251C41.4605 57.4251 32.9257 48.908 32.9257 38.4016Z" stroke="black" stroke-width="5"/>
</svg>
