<svg width="215" height="278" viewBox="0 0 215 278" fill="none" xmlns="http://www.w3.org/2000/svg">
<path d="M213 165.633V177.159L198 185.791V226.158L108 278L53 246.316V234.79L43 229.002L33 234.79L18 226.158V157.001L3 159.895V148.369L93 96.5265L153 85.0004L213 165.633Z" fill="#66E1FF"/>
<path d="M108 208.863L123 229.027L198 185.816V226.148L108 278V208.863Z" fill="#4292A6"/>
<path d="M63 148.364L3 159.89V148.364L63 136.843L123 217.505V229.027L63 148.364Z" fill="#FF5757"/>
<path d="M153 96.5116L93 108.033V96.5116L153 84.9855L213 165.648V177.174L153 96.5116Z" fill="#4292A6"/>
<path d="M3 148.364L93 96.5116L153 84.9855L63 136.843L3 148.364Z" fill="#E64E4E"/>
<path d="M123 217.505L213 165.648L153 84.9855L63 136.843L123 217.505Z" fill="#CC4545"/>
<path d="M123 217.505L213 165.648V177.174L123 229.027V217.505Z" fill="#B33D3D"/>
<path d="M68 226.148L93 240.548V211.742L68 197.337V226.148Z" fill="#4292A6"/>
<path d="M33 234.79L43 229.027V194.458L33 188.695V234.79Z" fill="#4292A6"/>
<path d="M78 220.384L93 229.027V211.742L78 203.1V220.384Z" fill="#4AD8FF"/>
<path d="M68 226.148L93 240.548V229.027L78 220.385L68 226.148Z" fill="#52B1CC"/>
<path d="M43 229.027L53 234.79V200.216L43 194.458V229.027Z" fill="#FF5757"/>
<path d="M165 0H52V66.6999H165V0Z" fill="white"/>
<path d="M165 0H152.159V88.4188L165 101.233V0Z" fill="#525050"/>
<path d="M103.433 7.8016L125.674 18.2767C126.945 18.8751 127.488 20.3882 126.889 21.6563L126.889 21.6563C126.289 22.9243 124.773 23.4671 123.502 22.8686L101.262 12.3936C99.991 11.7951 99.447 10.282 100.047 9.01397L100.047 9.01395C100.646 7.74592 102.163 7.20313 103.433 7.8016Z" fill="black"/>
<path d="M80.5559 22.8794L102.796 12.4043C104.067 11.8058 104.611 10.2927 104.011 9.0247L104.011 9.02469C103.412 7.75666 101.895 7.21387 100.625 7.81234L78.3842 18.2874C77.1135 18.8859 76.5696 20.399 77.1693 21.667L77.1693 21.667C77.769 22.935 79.2853 23.4778 80.5559 22.8794Z" fill="black"/>
<path d="M82.9257 38.4016C82.9257 27.8952 91.4605 19.3781 101.989 19.3781C112.517 19.3781 121.052 27.8952 121.052 38.4016C121.052 48.908 112.517 57.4251 101.989 57.4251C91.4605 57.4251 82.9257 48.908 82.9257 38.4016Z" stroke="black" stroke-width="5"/>
</svg>
