<svg width="64" height="64" viewBox="0 0 64 64" fill="none" xmlns="http://www.w3.org/2000/svg">
<path d="M55.2 59.85C54.2333 59.15 53.3666 58.8 52.6 58.8C51.8666 58.8 51.0167 59.15 50.05 59.85C49.45 60.2833 48.4666 61.15 47.1 62.45C46.5333 63.0167 46.05 63.5333 45.65 64H59.6C59.1666 63.5333 58.6834 63.0167 58.15 62.45C56.75 61.1167 55.7667 60.25 55.2 59.85ZM32.25 52.55C30.8833 51.55 29.6666 51.0666 28.6 51.1C27.5666 51.0666 26.3667 51.55 25 52.55C24.2 53.15 22.8166 54.3833 20.85 56.25C18.9833 58.2167 17.75 59.6167 17.15 60.45C16.15 61.7833 15.6667 62.9667 15.7 64H41.55C41.5833 62.9667 41.1 61.7833 40.1 60.45C39.5 59.6167 38.2667 58.2167 36.4 56.25C34.4334 54.3833 33.05 53.15 32.25 52.55ZM4.34998 17.4C2.28331 15.4334 0.849988 14.15 0.0499878 13.55H0V37.55L0.0499878 37.5C0.849988 36.9 2.28331 35.6167 4.34998 33.65C6.28331 31.6167 7.56668 30.1667 8.20001 29.3C9.23335 27.9 9.73335 26.65 9.70001 25.55C9.73335 24.45 9.23335 23.1833 8.20001 21.75C7.56668 20.8833 6.28331 19.4334 4.34998 17.4ZM15.7 0C15.6667 1.06667 16.15 2.28336 17.15 3.65002C17.75 4.48336 18.9833 5.86665 20.85 7.79999C22.8166 9.66665 24.2 10.9 25 11.5C26.3667 12.5 27.5666 12.9833 28.6 12.95C29.6666 12.9833 30.8833 12.5 32.25 11.5C33.05 10.9 34.4334 9.66665 36.4 7.79999C38.2667 5.83332 39.5 4.45002 40.1 3.65002C41.1 2.28336 41.5833 1.06667 41.55 0H15.7ZM56.5 13.55C55.6333 14.1833 54.1834 15.4667 52.15 17.4C50.2167 19.4334 48.9333 20.8833 48.3 21.75C47.2667 23.1833 46.7667 24.45 46.8 25.55C46.7667 26.65 47.2667 27.9 48.3 29.3C48.9333 30.1667 50.2167 31.6167 52.15 33.65C54.1834 35.5834 55.6333 36.8667 56.5 37.5C57.9 38.5333 59.15 39.0333 60.25 39C61.35 39.0333 62.6 38.55 64 37.55V13.55H63.95C62.5833 12.5167 61.35 12.0167 60.25 12.05C59.15 12.0167 57.9 12.5167 56.5 13.55ZM61.8 4C61.8 3.23333 61.45 2.36669 60.75 1.40002C60.5167 1.06669 60.1167 0.6 59.55 0H45.7C45.1333 0.6 44.7167 1.06669 44.45 1.40002C43.75 2.36669 43.4167 3.23333 43.45 4C43.4167 4.73333 43.75 5.58332 44.45 6.54999C44.8833 7.14999 45.7666 8.13333 47.1 9.5C48.4666 10.8333 49.45 11.7167 50.05 12.15C51.0167 12.85 51.8666 13.1834 52.6 13.15C53.3666 13.1834 54.2333 12.85 55.2 12.15C55.7667 11.7167 56.75 10.8333 58.15 9.5C59.45 8.13333 60.3167 7.14999 60.75 6.54999C61.45 5.58332 61.8 4.73333 61.8 4ZM22.65 42.6C22.6167 41.8666 22.1833 41.05 21.35 40.15C20.85 39.6167 19.8833 38.75 18.45 37.55C16.9167 36.3833 15.8333 35.6167 15.2 35.25C14.1667 34.65 13.2833 34.4 12.55 34.5C11.7833 34.5667 10.9666 35 10.1 35.8C9.56664 36.3 8.68335 37.2833 7.45001 38.75C6.28335 40.2833 5.53335 41.3667 5.20001 42C4.60001 43.0333 4.35001 43.9167 4.45001 44.65C4.48335 45.3834 4.91667 46.2 5.75 47.1C6.21667 47.6333 7.18336 48.5167 8.65002 49.75C10.1834 50.9167 11.2667 51.6667 11.9 52C12.9334 52.6 13.8167 52.85 14.55 52.75C15.3167 52.6833 16.1333 52.25 17 51.45C17.5333 50.95 18.4167 49.9667 19.65 48.5C20.8167 47 21.5833 45.9333 21.95 45.3C22.55 44.2667 22.7834 43.3666 22.65 42.6ZM13.2 15.65C12.1667 16.4834 11.4666 17.0833 11.1 17.45C10.5333 18.05 10.2167 18.6 10.15 19.1C10.05 19.6 10.2 20.2167 10.6 20.95C10.8333 21.3833 11.3333 22.15 12.1 23.25C12.9 24.3167 13.4833 25.0166 13.85 25.35C14.45 25.95 15 26.2667 15.5 26.3C16.0333 26.4 16.65 26.25 17.35 25.85C17.8166 25.6166 18.5834 25.1166 19.65 24.35C20.7167 23.5166 21.4167 22.9333 21.75 22.6C22.35 22 22.6667 21.45 22.7 20.95C22.8 20.4167 22.6667 19.8 22.3 19.1C22.0667 18.6666 21.5667 17.9 20.8 16.8C19.9667 15.7333 19.3667 15.0333 19 14.7C18.4 14.1 17.85 13.7667 17.35 13.7C16.85 13.6333 16.2333 13.7834 15.5 14.15C15.0667 14.3834 14.3 14.8834 13.2 15.65ZM44.25 28.55C43.6833 27.6833 42.4834 26.1667 40.65 24C38.75 21.9333 37.3833 20.5667 36.55 19.9C35.1833 18.7667 33.95 18.1834 32.85 18.15C31.75 18.05 30.4667 18.4833 29 19.45C28.1 20.0167 26.5833 21.2167 24.45 23.05C22.3833 24.95 21.0166 26.3167 20.35 27.15C19.2166 28.5167 18.6333 29.75 18.6 30.85C18.5 31.9166 18.9334 33.2 19.9 34.7C20.4667 35.5667 21.6667 37.0833 23.5 39.25C25.4 41.3167 26.7666 42.6833 27.6 43.35C28.9666 44.45 30.1833 45.0167 31.25 45.05C32.35 45.15 33.65 44.7333 35.15 43.8C36.0167 43.2 37.5333 42 39.7 40.2C41.7333 38.3 43.1 36.9333 43.8 36.1C44.9333 34.7333 45.5167 33.5 45.55 32.4C45.65 31.3 45.2167 30.0167 44.25 28.55Z" fill="#24A65B"/>
<path d="M64 50C63.4333 49.6667 62.9333 49.5 62.5 49.5C61.9667 49.5 61.3667 49.7333 60.7 50.2C60.3 50.5 59.6167 51.1167 58.65 52.05C57.75 53.0167 57.15 53.6833 56.85 54.05C56.35 54.75 56.1167 55.35 56.15 55.85C56.1167 56.3833 56.35 56.9834 56.85 57.65C57.15 58.05 57.75 58.7333 58.65 59.7C59.6167 60.6333 60.3 61.2333 60.7 61.5C61.3667 62 61.9667 62.2333 62.5 62.2C62.9333 62.2333 63.4333 62.0667 64 61.7V50ZM11.4 64C11.1 63.6667 10.85 63.4167 10.65 63.25C9.71669 62.45 8.88336 62.05 8.15002 62.05C7.38336 61.95 6.5 62.2166 5.5 62.85C5.13333 63.0833 4.63333 63.4667 4 64H11.4ZM4.15002 54.05C3.88336 53.6833 3.28331 53.0167 2.34998 52.05C1.34998 51.1167 0.666654 50.5 0.299988 50.2C0.199988 50.1333 0.1 50.0667 0 50V61.75C0.1 61.6833 0.199988 61.6 0.299988 61.5C0.666654 61.2333 1.34998 60.6333 2.34998 59.7C3.28331 58.7 3.88336 58.0167 4.15002 57.65C4.65002 56.9834 4.88331 56.3833 4.84998 55.85C4.88331 55.35 4.65002 54.75 4.15002 54.05ZM4 0C3.53333 0.333333 2.98331 0.75 2.34998 1.25C1.28331 2.21667 0.5 2.98332 0 3.54999V10.3C0.4 10.8333 0.916654 11.5 1.54999 12.3C2.84999 13.7333 3.76665 14.6834 4.29999 15.15C5.19999 15.9167 6.03332 16.3166 6.79999 16.35C7.53332 16.4166 8.41668 16.1333 9.45001 15.5C10.0833 15.1 11.1167 14.3 12.55 13.1C13.9833 11.8333 14.9334 10.9166 15.4 10.35C16.1667 9.44998 16.5666 8.61664 16.6 7.84998C16.7 7.11664 16.4333 6.23335 15.8 5.20001C15.4333 4.60001 14.6334 3.54999 13.4 2.04999C12.6 1.18332 11.9334 0.5 11.4 0H4ZM64 3.54999C63.9667 3.54999 63.95 3.56664 63.95 3.59998C63.7833 3.73331 63.65 3.88332 63.55 4.04999C62.7833 4.94999 62.3833 5.76667 62.35 6.5C62.25 7.26667 62.5333 8.15002 63.2 9.15002C63.3667 9.45002 63.6167 9.81667 63.95 10.25L64 10.3V3.54999ZM55.25 40.7C53.85 39.3667 52.8667 38.4833 52.3 38.05C51.3333 37.35 50.4667 37.0167 49.7 37.05C48.9667 37.0167 48.1167 37.35 47.15 38.05C46.55 38.5167 45.5667 39.4 44.2 40.7C42.9 42.0667 42.0333 43.05 41.6 43.65C40.8666 44.6167 40.5167 45.4667 40.55 46.2C40.5167 46.9667 40.8666 47.8333 41.6 48.8C42.0333 49.4 42.9 50.3833 44.2 51.75C45.5667 53.05 46.55 53.9334 47.15 54.4C48.1167 55.1 48.9667 55.4334 49.7 55.4C50.4667 55.4334 51.3333 55.1 52.3 54.4C52.8667 53.9667 53.85 53.0833 55.25 51.75C56.5833 50.3833 57.4667 49.4 57.9 48.8C58.6 47.8333 58.9334 46.9667 58.9 46.2C58.9334 45.4667 58.6 44.6167 57.9 43.65C57.4667 43.05 56.5833 42.0667 55.25 40.7ZM44.9 9.45001C43.9334 8.51668 43.25 7.91669 42.85 7.65002C42.1833 7.15002 41.5833 6.90002 41.05 6.90002C40.55 6.90002 39.9667 7.15002 39.3 7.65002C38.9 7.91669 38.2167 8.51668 37.25 9.45001C36.3167 10.4167 35.7 11.1 35.4 11.5C34.9334 12.1667 34.7 12.75 34.7 13.25C34.7 13.7833 34.9334 14.3833 35.4 15.05C35.7 15.45 36.3167 16.1333 37.25 17.1C38.2167 18.0333 38.9 18.65 39.3 18.95C39.9667 19.4167 40.55 19.65 41.05 19.65C41.5833 19.65 42.1833 19.4167 42.85 18.95C43.25 18.65 43.9334 18.0333 44.9 17.1C45.8334 16.1333 46.4333 15.45 46.7 15.05C47.2 14.3833 47.4334 13.7833 47.4 13.25C47.4334 12.75 47.2 12.1667 46.7 11.5C46.4333 11.1333 45.8334 10.45 44.9 9.45001Z" fill="#2ABD68"/>
<path d="M4 0H0V3.54999C0.5 2.98332 1.28331 2.21667 2.34998 1.25C2.98331 0.75 3.53333 0.333333 4 0ZM63.95 3.59998C63.95 3.56664 63.9667 3.54999 64 3.54999V0H59.55C60.1167 0.6 60.5167 1.06669 60.75 1.40002C61.45 2.36669 61.8 3.23333 61.8 4C61.8 4.73333 61.45 5.58332 60.75 6.54999C60.3167 7.14999 59.45 8.13333 58.15 9.5C56.75 10.8333 55.7667 11.7167 55.2 12.15C54.2333 12.85 53.3666 13.1834 52.6 13.15C51.8666 13.1834 51.0167 12.85 50.05 12.15C49.45 11.7167 48.4666 10.8333 47.1 9.5C45.7666 8.13333 44.8833 7.14999 44.45 6.54999C43.75 5.58332 43.4167 4.73333 43.45 4C43.4167 3.23333 43.75 2.36669 44.45 1.40002C44.7167 1.06669 45.1333 0.6 45.7 0H41.55C41.5833 1.06667 41.1 2.28336 40.1 3.65002C39.5 4.45002 38.2667 5.83332 36.4 7.79999C34.4334 9.66665 33.05 10.9 32.25 11.5C30.8833 12.5 29.6666 12.9833 28.6 12.95C27.5666 12.9833 26.3667 12.5 25 11.5C24.2 10.9 22.8166 9.66665 20.85 7.79999C18.9833 5.86665 17.75 4.48336 17.15 3.65002C16.15 2.28336 15.6667 1.06667 15.7 0H11.4C11.9334 0.5 12.6 1.18332 13.4 2.04999C14.6334 3.54999 15.4333 4.60001 15.8 5.20001C16.4333 6.23335 16.7 7.11664 16.6 7.84998C16.5666 8.61664 16.1667 9.44998 15.4 10.35C14.9334 10.9166 13.9833 11.8333 12.55 13.1C11.1167 14.3 10.0833 15.1 9.45001 15.5C8.41668 16.1333 7.53332 16.4166 6.79999 16.35C6.03332 16.3166 5.19999 15.9167 4.29999 15.15C3.76665 14.6834 2.84999 13.7333 1.54999 12.3C0.916654 11.5 0.4 10.8333 0 10.3V13.55H0.0499878C0.849988 14.15 2.28331 15.4334 4.34998 17.4C6.28331 19.4334 7.56668 20.8833 8.20001 21.75C9.23335 23.1833 9.73335 24.45 9.70001 25.55C9.73335 26.65 9.23335 27.9 8.20001 29.3C7.56668 30.1667 6.28331 31.6167 4.34998 33.65C2.28331 35.6167 0.849988 36.9 0.0499878 37.5L0 37.55V50C0.1 50.0667 0.199988 50.1333 0.299988 50.2C0.666654 50.5 1.34998 51.1167 2.34998 52.05C3.28331 53.0167 3.88336 53.6833 4.15002 54.05C4.65002 54.75 4.88331 55.35 4.84998 55.85C4.88331 56.3833 4.65002 56.9834 4.15002 57.65C3.88336 58.0167 3.28331 58.7 2.34998 59.7C1.34998 60.6333 0.666654 61.2333 0.299988 61.5C0.199988 61.6 0.1 61.6833 0 61.75V64H4C4.63333 63.4667 5.13333 63.0833 5.5 62.85C6.5 62.2166 7.38336 61.95 8.15002 62.05C8.88336 62.05 9.71669 62.45 10.65 63.25C10.85 63.4167 11.1 63.6667 11.4 64H15.7C15.6667 62.9667 16.15 61.7833 17.15 60.45C17.75 59.6167 18.9833 58.2167 20.85 56.25C22.8166 54.3833 24.2 53.15 25 52.55C26.3667 51.55 27.5666 51.0666 28.6 51.1C29.6666 51.0666 30.8833 51.55 32.25 52.55C33.05 53.15 34.4334 54.3833 36.4 56.25C38.2667 58.2167 39.5 59.6167 40.1 60.45C41.1 61.7833 41.5833 62.9667 41.55 64H45.65C46.05 63.5333 46.5333 63.0167 47.1 62.45C48.4666 61.15 49.45 60.2833 50.05 59.85C51.0167 59.15 51.8666 58.8 52.6 58.8C53.3666 58.8 54.2333 59.15 55.2 59.85C55.7667 60.25 56.75 61.1167 58.15 62.45C58.6834 63.0167 59.1666 63.5333 59.6 64H64V61.7C63.4333 62.0667 62.9333 62.2333 62.5 62.2C61.9667 62.2333 61.3667 62 60.7 61.5C60.3 61.2333 59.6167 60.6333 58.65 59.7C57.75 58.7333 57.15 58.05 56.85 57.65C56.35 56.9834 56.1167 56.3833 56.15 55.85C56.1167 55.35 56.35 54.75 56.85 54.05C57.15 53.6833 57.75 53.0167 58.65 52.05C59.6167 51.1167 60.3 50.5 60.7 50.2C61.3667 49.7333 61.9667 49.5 62.5 49.5C62.9333 49.5 63.4333 49.6667 64 50V37.55C62.6 38.55 61.35 39.0333 60.25 39C59.15 39.0333 57.9 38.5333 56.5 37.5C55.6333 36.8667 54.1834 35.5834 52.15 33.65C50.2167 31.6167 48.9333 30.1667 48.3 29.3C47.2667 27.9 46.7667 26.65 46.8 25.55C46.7667 24.45 47.2667 23.1833 48.3 21.75C48.9333 20.8833 50.2167 19.4334 52.15 17.4C54.1834 15.4667 55.6333 14.1833 56.5 13.55C57.9 12.5167 59.15 12.0167 60.25 12.05C61.35 12.0167 62.5833 12.5167 63.95 13.55H64V10.3L63.95 10.25C63.6167 9.81667 63.3667 9.45002 63.2 9.15002C62.5333 8.15002 62.25 7.26667 62.35 6.5C62.3833 5.76667 62.7833 4.94999 63.55 4.04999C63.65 3.88332 63.7833 3.73331 63.95 3.59998ZM42.85 7.65002C43.25 7.91669 43.9334 8.51668 44.9 9.45001C45.8334 10.45 46.4333 11.1333 46.7 11.5C47.2 12.1667 47.4334 12.75 47.4 13.25C47.4334 13.7833 47.2 14.3833 46.7 15.05C46.4333 15.45 45.8334 16.1333 44.9 17.1C43.9334 18.0333 43.25 18.65 42.85 18.95C42.1833 19.4167 41.5833 19.65 41.05 19.65C40.55 19.65 39.9667 19.4167 39.3 18.95C38.9 18.65 38.2167 18.0333 37.25 17.1C36.3167 16.1333 35.7 15.45 35.4 15.05C34.9334 14.3833 34.7 13.7833 34.7 13.25C34.7 12.75 34.9334 12.1667 35.4 11.5C35.7 11.1 36.3167 10.4167 37.25 9.45001C38.2167 8.51668 38.9 7.91669 39.3 7.65002C39.9667 7.15002 40.55 6.90002 41.05 6.90002C41.5833 6.90002 42.1833 7.15002 42.85 7.65002ZM40.65 24C42.4834 26.1667 43.6833 27.6833 44.25 28.55C45.2167 30.0167 45.65 31.3 45.55 32.4C45.5167 33.5 44.9333 34.7333 43.8 36.1C43.1 36.9333 41.7333 38.3 39.7 40.2C37.5333 42 36.0167 43.2 35.15 43.8C33.65 44.7333 32.35 45.15 31.25 45.05C30.1833 45.0167 28.9666 44.45 27.6 43.35C26.7666 42.6833 25.4 41.3167 23.5 39.25C21.6667 37.0833 20.4667 35.5667 19.9 34.7C18.9334 33.2 18.5 31.9166 18.6 30.85C18.6333 29.75 19.2166 28.5167 20.35 27.15C21.0166 26.3167 22.3833 24.95 24.45 23.05C26.5833 21.2167 28.1 20.0167 29 19.45C30.4667 18.4833 31.75 18.05 32.85 18.15C33.95 18.1834 35.1833 18.7667 36.55 19.9C37.3833 20.5667 38.75 21.9333 40.65 24ZM11.1 17.45C11.4666 17.0833 12.1667 16.4834 13.2 15.65C14.3 14.8834 15.0667 14.3834 15.5 14.15C16.2333 13.7834 16.85 13.6333 17.35 13.7C17.85 13.7667 18.4 14.1 19 14.7C19.3667 15.0333 19.9667 15.7333 20.8 16.8C21.5667 17.9 22.0667 18.6666 22.3 19.1C22.6667 19.8 22.8 20.4167 22.7 20.95C22.6667 21.45 22.35 22 21.75 22.6C21.4167 22.9333 20.7167 23.5166 19.65 24.35C18.5834 25.1166 17.8166 25.6166 17.35 25.85C16.65 26.25 16.0333 26.4 15.5 26.3C15 26.2667 14.45 25.95 13.85 25.35C13.4833 25.0166 12.9 24.3167 12.1 23.25C11.3333 22.15 10.8333 21.3833 10.6 20.95C10.2 20.2167 10.05 19.6 10.15 19.1C10.2167 18.6 10.5333 18.05 11.1 17.45ZM21.35 40.15C22.1833 41.05 22.6167 41.8666 22.65 42.6C22.7834 43.3666 22.55 44.2667 21.95 45.3C21.5833 45.9333 20.8167 47 19.65 48.5C18.4167 49.9667 17.5333 50.95 17 51.45C16.1333 52.25 15.3167 52.6833 14.55 52.75C13.8167 52.85 12.9334 52.6 11.9 52C11.2667 51.6667 10.1834 50.9167 8.65002 49.75C7.18336 48.5167 6.21667 47.6333 5.75 47.1C4.91667 46.2 4.48335 45.3834 4.45001 44.65C4.35001 43.9167 4.60001 43.0333 5.20001 42C5.53335 41.3667 6.28335 40.2833 7.45001 38.75C8.68335 37.2833 9.56664 36.3 10.1 35.8C10.9666 35 11.7833 34.5667 12.55 34.5C13.2833 34.4 14.1667 34.65 15.2 35.25C15.8333 35.6167 16.9167 36.3833 18.45 37.55C19.8833 38.75 20.85 39.6167 21.35 40.15ZM52.3 38.05C52.8667 38.4833 53.85 39.3667 55.25 40.7C56.5833 42.0667 57.4667 43.05 57.9 43.65C58.6 44.6167 58.9334 45.4667 58.9 46.2C58.9334 46.9667 58.6 47.8333 57.9 48.8C57.4667 49.4 56.5833 50.3833 55.25 51.75C53.85 53.0833 52.8667 53.9667 52.3 54.4C51.3333 55.1 50.4667 55.4334 49.7 55.4C48.9667 55.4334 48.1167 55.1 47.15 54.4C46.55 53.9334 45.5667 53.05 44.2 51.75C42.9 50.3833 42.0333 49.4 41.6 48.8C40.8666 47.8333 40.5167 46.9667 40.55 46.2C40.5167 45.4667 40.8666 44.6167 41.6 43.65C42.0333 43.05 42.9 42.0667 44.2 40.7C45.5667 39.4 46.55 38.5167 47.15 38.05C48.1167 37.35 48.9667 37.0167 49.7 37.05C50.4667 37.0167 51.3333 37.35 52.3 38.05Z" fill="#28B162"/>
<rect x="1.5" y="1.5" width="61" height="61" stroke="#1E8F4E" stroke-width="3"/>
</svg>
