<svg width="360" height="360" viewBox="0 0 64 64" fill="none" xmlns="http://www.w3.org/2000/svg">
<path d="M52 0H54.85C56.3833 3.56667 56.3833 7.13335 54.85 10.7C53.3167 14.2333 53.3167 17.7833 54.85 21.35C56.3833 24.9167 56.3833 28.4667 54.85 32C53.3167 35.5667 53.3167 39.1333 54.85 42.7C56.3833 46.2333 56.3833 49.7833 54.85 53.35C53.3167 56.9167 53.3167 60.4667 54.85 64H52V0ZM12 0V64H9.15C10.6833 60.4667 10.6833 56.9167 9.15 53.35C7.61667 49.7833 7.61667 46.2333 9.15 42.7C10.6833 39.1333 10.6833 35.5667 9.15 32C7.61667 28.4667 7.61667 24.9167 9.15 21.35C10.6833 17.7833 10.6833 14.2333 9.15 10.7C7.61667 7.13335 7.61667 3.56667 9.15 0H12Z" fill="#AA733C"/>
<path d="M12 0H14V64H12V0ZM16 0H31V64H16V0ZM33 0H48V64H33V0ZM50 0H52V64H50V0Z" fill="#89A4A6"/>
<path d="M50 0V64H48V0H50ZM16 0V64H14V0H16Z" fill="#7D9698"/>
<path d="M31 64V0H33V64H31Z" fill="#92AFB1"/>
<path d="M54.85 0H64V64H54.85C53.3167 60.4667 53.3167 56.9167 54.85 53.35C56.3833 49.7833 56.3833 46.2333 54.85 42.7C53.3167 39.1333 53.3167 35.5667 54.85 32C56.3833 28.4667 56.3833 24.9167 54.85 21.35C53.3167 17.7833 53.3167 14.2333 54.85 10.7C56.3833 7.13335 56.3833 3.56667 54.85 0ZM9.15 0C7.61667 3.56667 7.61667 7.13335 9.15 10.7C10.6833 14.2333 10.6833 17.7833 9.15 21.35C7.61667 24.9167 7.61667 28.4667 9.15 32C10.6833 35.5667 10.6833 39.1333 9.15 42.7C7.61667 46.2333 7.61667 49.7833 9.15 53.35C10.6833 56.9167 10.6833 60.4667 9.15 64H0V0H9.15Z" fill="#BD8042"/>
</svg>
