<svg width="360" height="360" viewBox="0 0 64 64" fill="none" xmlns="http://www.w3.org/2000/svg">
<path d="M0 9.14999V0H64V9.14999C60.4333 7.61666 56.8667 7.61666 53.3 9.14999C49.7667 10.6833 46.2167 10.6833 42.65 9.14999C39.0833 7.61666 35.5333 7.61666 32 9.14999C28.4333 10.6833 24.8667 10.6833 21.3 9.14999C17.7667 7.61666 14.2167 7.61666 10.65 9.14999C7.08333 10.6833 3.53333 10.6833 0 9.14999ZM64 54.85V64H0V54.85C3.53333 53.3167 7.08333 53.3167 10.65 54.85C14.2167 56.3833 17.7667 56.3833 21.3 54.85C24.8667 53.3167 28.4333 53.3167 32 54.85C35.5333 56.3833 39.0833 56.3833 42.65 54.85C46.2167 53.3167 49.7667 53.3167 53.3 54.85C56.8667 56.3833 60.4333 56.3833 64 54.85Z" fill="#BD8042"/>
<path d="M64 54.85C60.4333 56.3833 56.8667 56.3833 53.3 54.85C49.7667 53.3167 46.2167 53.3167 42.65 54.85C39.0833 56.3833 35.5333 56.3833 32 54.85C28.4333 53.3167 24.8667 53.3167 21.3 54.85C17.7667 56.3833 14.2167 56.3833 10.65 54.85C7.08333 53.3167 3.53333 53.3167 0 54.85V52H64V54.85ZM64 9.15V12H0V9.15C3.53333 10.6833 7.08333 10.6833 10.65 9.15C14.2167 7.61667 17.7667 7.61667 21.3 9.15C24.8667 10.6833 28.4333 10.6833 32 9.15C35.5333 7.61667 39.0833 7.61667 42.65 9.15C46.2167 10.6833 49.7667 10.6833 53.3 9.15C56.8667 7.61667 60.4333 7.61667 64 9.15Z" fill="#AA733C"/>
<path d="M64 14V16H0V14H64ZM64 48V50H0V48H64Z" fill="#7D9698"/>
<path d="M64 12V14H0V12H64ZM64 16V31H0V16H64ZM64 33V48H0V33H64ZM64 50V52H0V50H64Z" fill="#89A4A6"/>
<path d="M64 31V33H0V31H64Z" fill="#92AFB1"/>
</svg>
