<svg width="136" height="136" viewBox="0 0 136 136" fill="none" xmlns="http://www.w3.org/2000/svg">
<path d="M68 133C103.899 133 133 103.899 133 68C133 32.1015 103.899 3 68 3C32.1015 3 3 32.1015 3 68C3 103.899 32.1015 133 68 133Z" stroke="white" stroke-width="6"/>
<path fill-rule="evenodd" clip-rule="evenodd" d="M84.5 27C68.2076 27 55 40.2076 55 56.5C55 72.7924 68.2076 86 84.5 86C100.792 86 114 72.7924 114 56.5C114 40.2076 100.792 27 84.5 27ZM49 56.5C49 36.8939 64.8939 21 84.5 21C104.106 21 120 36.8939 120 56.5C120 76.1061 104.106 92 84.5 92C64.8939 92 49 76.1061 49 56.5ZM52.5 50C36.2076 50 23 63.2076 23 79.5C23 95.7924 36.2076 109 52.5 109C68.7924 109 82 95.7924 82 79.5C82 63.2076 68.7924 50 52.5 50ZM17 79.5C17 59.8939 32.8939 44 52.5 44C72.1061 44 88 59.8939 88 79.5C88 99.1061 72.1061 115 52.5 115C32.8939 115 17 99.1061 17 79.5Z" fill="white"/>
</svg>
