<svg width="136" height="136" viewBox="0 0 136 136" fill="none" xmlns="http://www.w3.org/2000/svg">
<circle cx="68" cy="68" r="65" stroke="black" stroke-width="6"/>
<path fill-rule="evenodd" clip-rule="evenodd" d="M38 113H82C87.5229 113 92 108.523 92 103V95.5V59C92 53.4772 87.5229 49 82 49H47.5H38C32.4772 49 28 53.4772 28 59V103C28 108.523 32.4772 113 38 113ZM38 43C29.1634 43 22 50.1634 22 59V103C22 111.837 29.1634 119 38 119H82C90.8366 119 98 111.837 98 103V95.5V59C98 50.1634 90.8366 43 82 43H47.5H38ZM104 28H60C54.4772 28 50 32.4772 50 38V82C50 87.5229 54.4772 92 60 92H104C109.523 92 114 87.5229 114 82V38C114 32.4772 109.523 28 104 28ZM60 22C51.1634 22 44 29.1634 44 38V82C44 90.8366 51.1634 98 60 98H104C112.837 98 120 90.8366 120 82V38C120 29.1634 112.837 22 104 22H60Z" fill="black"/>
</svg>
