<svg width="235" height="232" viewBox="0 0 235 232" fill="none" xmlns="http://www.w3.org/2000/svg">
<path d="M0 0H235V139H0V0Z" fill="white"/>
<path d="M0 0H26V232H0V0Z" fill="#BEBBBB"/>
<path d="M128.037 16.2581L81.7847 38.0877C79.1422 39.3349 78.011 42.4882 79.2582 45.1307L79.2583 45.1307C80.5054 47.7733 83.6587 48.9044 86.3012 47.6572L132.554 25.8276C135.196 24.5804 136.327 21.4272 135.08 18.7846L135.08 18.7846C133.833 16.1421 130.68 15.0109 128.037 16.2581Z" fill="black"/>
<path d="M175.612 47.6798L129.36 25.8502C126.717 24.603 125.586 21.4498 126.833 18.8073L126.833 18.8072C128.081 16.1647 131.234 15.0336 133.876 16.2808L180.129 38.1104C182.771 39.3576 183.902 42.5108 182.655 45.1533L182.655 45.1534C181.408 47.7959 178.255 48.927 175.612 47.6798Z" fill="black"/>
<path d="M170.685 80.0276C170.685 58.1326 152.935 40.3833 131.04 40.3833C109.145 40.3833 91.3961 58.1326 91.3961 80.0276C91.3961 101.923 109.145 119.672 131.04 119.672C152.935 119.672 170.685 101.923 170.685 80.0276Z" stroke="black" stroke-width="12"/>
</svg>
